<svg width="68" height="67" viewBox="0 0 68 67" fill="none" xmlns="http://www.w3.org/2000/svg">
<path fill-rule="evenodd" clip-rule="evenodd" d="M36.5801 7.67712C36.5801 7.12183 36.3595 6.58927 35.9669 6.19662C35.5742 5.80396 35.0416 5.58337 34.4864 5.58337C33.9311 5.58337 33.3985 5.80396 33.0058 6.19662C32.6132 6.58927 32.3926 7.12183 32.3926 7.67712V12.5625H26.8819C25.9011 12.5621 24.943 12.8568 24.1321 13.4084L19.4002 16.63C19.284 16.7087 19.1469 16.7505 19.0066 16.75H7.55514C6.99985 16.75 6.46729 16.9706 6.07464 17.3633C5.68198 17.7559 5.46139 18.2885 5.46139 18.8438C5.46139 19.3991 5.68198 19.9316 6.07464 20.3243C6.46729 20.7169 6.99985 20.9375 7.55514 20.9375H11.9576L2.55806 42.3775C2.38051 42.7959 2.34164 43.2602 2.44714 43.7023C2.55264 44.1444 2.79696 44.5411 3.14431 44.8342C3.36764 45.0129 3.59377 45.1832 4.00693 45.4512C4.52618 45.789 5.26877 46.2272 6.21793 46.66C8.11627 47.5282 10.8577 48.3908 14.2468 48.3908C17.0162 48.3961 19.7544 47.8058 22.2756 46.66C23.2248 46.2272 23.9674 45.789 24.4866 45.4512C24.9054 45.1804 25.1287 45.0101 25.352 44.8286C25.7021 44.5388 25.9484 44.1428 26.0537 43.7007C26.159 43.2585 26.1175 42.7941 25.9355 42.3775L16.5331 20.9375H19.0066C19.9864 20.9375 20.944 20.6416 21.7536 20.0917L26.4882 16.8701C26.6036 16.792 26.7397 16.7501 26.8791 16.75H32.3926V57.2292H19.8664C19.3111 57.2292 18.7785 57.4498 18.3859 57.8424C17.9932 58.2351 17.7726 58.7677 17.7726 59.323C17.7726 59.8783 17.9932 60.4108 18.3859 60.8035C18.7785 61.1961 19.3111 61.4167 19.8664 61.4167H49.1063C49.6616 61.4167 50.1942 61.1961 50.5868 60.8035C50.9795 60.4108 51.2001 59.8783 51.2001 59.323C51.2001 58.7677 50.9795 58.2351 50.5868 57.8424C50.1942 57.4498 49.6616 57.2292 49.1063 57.2292H36.5801V16.75H42.0909C42.2304 16.75 42.37 16.7919 42.4817 16.8701L47.2192 20.0917C48.0287 20.6416 48.9863 20.9375 49.9661 20.9375H52.4396L43.0372 42.3775C42.8492 42.8062 42.8103 43.2856 42.9267 43.739C43.0431 44.1924 43.3081 44.5937 43.6793 44.8789C43.7128 44.904 43.6793 44.8789 43.6849 44.8789C43.9618 45.0874 44.2508 45.2795 44.5503 45.454C45.0668 45.7666 45.8066 46.1686 46.7557 46.5706C49.28 47.6258 51.99 48.1649 54.7259 48.1563C57.463 48.1644 60.174 47.6243 62.6989 46.5678C63.6425 46.1686 64.3851 45.7666 64.9044 45.454C65.2028 45.2777 65.4917 45.0858 65.7698 44.8789C66.141 44.5937 66.406 44.1924 66.5224 43.739C66.6388 43.2856 66.5999 42.8062 66.4119 42.3775L57.0151 20.9375H61.4204C61.9757 20.9375 62.5082 20.7169 62.9009 20.3243C63.2935 19.9316 63.5141 19.3991 63.5141 18.8438C63.5141 18.2885 63.2935 17.7559 62.9009 17.3633C62.5082 16.9706 61.9757 16.75 61.4204 16.75H49.9689C49.8296 16.7499 49.6935 16.7081 49.5781 16.63L44.8406 13.4084C44.0305 12.8574 43.0734 12.5627 42.0936 12.5625H36.5801V7.67712ZM7.10848 42.4278C9.3058 43.597 11.7577 44.2059 14.2468 44.2005C16.7358 44.2059 19.1877 43.597 21.3851 42.4278L14.2468 26.1524L7.10848 42.4278ZM47.6156 42.3608C47.8445 42.4725 48.1013 42.5925 48.3833 42.7125C49.8629 43.3351 52.0264 43.9688 54.7259 43.9688C57.187 43.9758 59.6178 43.4261 61.8363 42.3608L54.7259 26.1496L47.6156 42.3608Z" fill="#144B66"/>
</svg>
