<svg width="88" height="88" viewBox="0 0 88 88" fill="none" xmlns="http://www.w3.org/2000/svg">
<g filter="url(#filter0_d_71_77)">
<circle cx="44" cy="34" r="24" fill="white"/>
</g>
<path d="M40 42V28C40 27.45 40.196 26.9793 40.588 26.588C40.9793 26.196 41.45 26 42 26H48C48.55 26 49.021 26.196 49.413 26.588C49.8043 26.9793 50 27.45 50 28V31H51C51.8333 31 52.5417 31.2917 53.125 31.875C53.7083 32.4583 54 33.1667 54 34V40C54 40.55 53.8043 41.021 53.413 41.413C53.021 41.8043 52.55 42 52 42H40ZM36.5 43C37.2 43 37.7917 42.7583 38.275 42.275C38.7583 41.7917 39 41.2 39 40.5V32.5C39 31.8 38.7583 31.2083 38.275 30.725C37.7917 30.2417 37.2 30 36.5 30C35.8 30 35.2083 30.2417 34.725 30.725C34.2417 31.2083 34 31.8 34 32.5V40.5C34 41.2 34.2417 41.7917 34.725 42.275C35.2083 42.7583 35.8 43 36.5 43ZM42 31H48V28H42V31ZM48 36C48.2833 36 48.5207 35.904 48.712 35.712C48.904 35.5207 49 35.2833 49 35C49 34.7167 48.904 34.479 48.712 34.287C48.5207 34.0957 48.2833 34 48 34C47.7167 34 47.4793 34.0957 47.288 34.287C47.096 34.479 47 34.7167 47 35C47 35.2833 47.096 35.5207 47.288 35.712C47.4793 35.904 47.7167 36 48 36ZM51 36C51.2833 36 51.5207 35.904 51.712 35.712C51.904 35.5207 52 35.2833 52 35C52 34.7167 51.904 34.479 51.712 34.287C51.5207 34.0957 51.2833 34 51 34C50.7167 34 50.4793 34.0957 50.288 34.287C50.096 34.479 50 34.7167 50 35C50 35.2833 50.096 35.5207 50.288 35.712C50.4793 35.904 50.7167 36 51 36ZM48 39C48.2833 39 48.5207 38.904 48.712 38.712C48.904 38.5207 49 38.2833 49 38C49 37.7167 48.904 37.479 48.712 37.287C48.5207 37.0957 48.2833 37 48 37C47.7167 37 47.4793 37.0957 47.288 37.287C47.096 37.479 47 37.7167 47 38C47 38.2833 47.096 38.5207 47.288 38.712C47.4793 38.904 47.7167 39 48 39ZM51 39C51.2833 39 51.5207 38.904 51.712 38.712C51.904 38.5207 52 38.2833 52 38C52 37.7167 51.904 37.479 51.712 37.287C51.5207 37.0957 51.2833 37 51 37C50.7167 37 50.4793 37.0957 50.288 37.287C50.096 37.479 50 37.7167 50 38C50 38.2833 50.096 38.5207 50.288 38.712C50.4793 38.904 50.7167 39 51 39ZM42 39H46V34H42V39Z" fill="#144B66"/>
<defs>
<filter id="filter0_d_71_77" x="0" y="0" width="88" height="88" filterUnits="userSpaceOnUse" color-interpolation-filters="sRGB">
<feFlood flood-opacity="0" result="BackgroundImageFix"/>
<feColorMatrix in="SourceAlpha" type="matrix" values="0 0 0 0 0 0 0 0 0 0 0 0 0 0 0 0 0 0 127 0" result="hardAlpha"/>
<feOffset dy="10"/>
<feGaussianBlur stdDeviation="10"/>
<feColorMatrix type="matrix" values="0 0 0 0 0.701961 0 0 0 0 0.737255 0 0 0 0 0.827451 0 0 0 0.13 0"/>
<feBlend mode="normal" in2="BackgroundImageFix" result="effect1_dropShadow_71_77"/>
<feBlend mode="normal" in="SourceGraphic" in2="effect1_dropShadow_71_77" result="shape"/>
</filter>
</defs>
</svg>
