<svg width="88" height="88" viewBox="0 0 88 88" fill="none" xmlns="http://www.w3.org/2000/svg">
<g filter="url(#filter0_d_68_54)">
<circle cx="44" cy="34" r="24" fill="white"/>
</g>
<path d="M44 43.0035C42.7369 41.9261 41.5662 40.745 40.5 39.4725C38.9 37.5615 37 34.7155 37 32.0035C36.9993 30.6185 37.4095 29.2644 38.1787 28.1125C38.9479 26.9607 40.0415 26.063 41.3211 25.5329C42.6007 25.0028 44.0087 24.8643 45.3671 25.1348C46.7255 25.4053 47.9731 26.0727 48.952 27.0525C49.6038 27.7014 50.1204 28.473 50.4719 29.3229C50.8234 30.1727 51.0029 31.0838 51 32.0035C51 34.7155 49.1 37.5615 47.5 39.4725C46.4338 40.745 45.2631 41.9261 44 43.0035ZM44 29.0035C43.2044 29.0035 42.4413 29.3196 41.8787 29.8822C41.3161 30.4448 41 31.2079 41 32.0035C41 32.7992 41.3161 33.5622 41.8787 34.1248C42.4413 34.6874 43.2044 35.0035 44 35.0035C44.7957 35.0035 45.5587 34.6874 46.1213 34.1248C46.6839 33.5622 47 32.7992 47 32.0035C47 31.2079 46.6839 30.4448 46.1213 29.8822C45.5587 29.3196 44.7957 29.0035 44 29.0035Z" fill="#144B66"/>
<defs>
<filter id="filter0_d_68_54" x="0" y="0" width="88" height="88" filterUnits="userSpaceOnUse" color-interpolation-filters="sRGB">
<feFlood flood-opacity="0" result="BackgroundImageFix"/>
<feColorMatrix in="SourceAlpha" type="matrix" values="0 0 0 0 0 0 0 0 0 0 0 0 0 0 0 0 0 0 127 0" result="hardAlpha"/>
<feOffset dy="10"/>
<feGaussianBlur stdDeviation="10"/>
<feColorMatrix type="matrix" values="0 0 0 0 0.701961 0 0 0 0 0.737255 0 0 0 0 0.827451 0 0 0 0.13 0"/>
<feBlend mode="normal" in2="BackgroundImageFix" result="effect1_dropShadow_68_54"/>
<feBlend mode="normal" in="SourceGraphic" in2="effect1_dropShadow_68_54" result="shape"/>
</filter>
</defs>
</svg>
